<?xml version="1.0" encoding="UTF-8"?>
<svg width="17px" height="17px" viewBox="0 0 17 17" version="1.1" xmlns="http://www.w3.org/2000/svg" xmlns:xlink="http://www.w3.org/1999/xlink">
    <title>Arrow_up green</title>
    <g id="ROI" stroke="none" stroke-width="1" fill="none" fill-rule="evenodd">
        <g transform="translate(-1372.000000, -504.000000)" fill="#00B894" id="Arrow_up-green">
            <g transform="translate(1372.000000, 504.000000)">
                <path d="M8.58311111,0.151111111 C3.99301119,0.151111111 0.272,3.8721223 0.272,8.46222222 C0.272,13.0523221 3.99301119,16.7733333 8.58311111,16.7733333 C13.173211,16.7733333 16.8942222,13.0523221 16.8942222,8.46222222 C16.8942222,3.8721223 13.173211,0.151111111 8.58311111,0.151111111 L8.58311111,0.151111111 Z M8.58311111,15.64 C4.61893391,15.64 1.40533333,12.4263994 1.40533333,8.46222222 C1.40533333,4.49804502 4.61893391,1.28444444 8.58311111,1.28444444 C12.5472883,1.28444444 15.7608889,4.49804502 15.7608889,8.46222222 C15.7608889,10.3658872 15.0046609,12.1915831 13.6585665,13.5376776 C12.312472,14.883772 10.4867761,15.64 8.58311111,15.64 Z" id="Shape"></path>
                <path d="M9.18377778,6.19555556 L9.18377778,6.19555556 L9.18377778,6.19555556 C9.15879917,6.17692788 9.13225575,6.16049624 9.10444444,6.14644444 C9.07503872,6.12322345 9.0434024,6.1029762 9.01,6.086 C8.975575,6.0749728 8.940143,6.06738023 8.90422222,6.06333333 C8.83554074,6.04056979 8.76134815,6.04056979 8.69266667,6.06333333 C8.65674589,6.06738023 8.62131389,6.0749728 8.58688889,6.086 C8.55348649,6.1029762 8.52185017,6.12322345 8.49244444,6.14644444 C8.46463314,6.16049624 8.43808972,6.17692788 8.41311111,6.19555556 L8.41311111,6.19555556 L8.41311111,6.19555556 L5.57977778,9.21777778 C5.37062905,9.44687124 5.38455488,9.80154936 5.61102199,10.0135391 C5.83748909,10.2255289 6.1923133,10.2160277 6.40711111,9.99222222 L8.82866667,7.412 L11.2502222,9.99222222 C11.46502,10.2160277 11.8198442,10.2255289 12.0463113,10.0135391 C12.2727784,9.80154936 12.2867043,9.44687124 12.0775556,9.21777778 L9.18377778,6.19555556 Z" id="Shape"></path>
            </g>
        </g>
    </g>
</svg>