<?xml version="1.0" encoding="UTF-8"?>
<svg width="17px" height="17px" viewBox="0 0 17 17" version="1.1" xmlns="http://www.w3.org/2000/svg" xmlns:xlink="http://www.w3.org/1999/xlink">
    <title>edit</title>
    <g id="segment-builder" stroke="none" stroke-width="1" fill="none" fill-rule="evenodd">
        <g id="Segementt" transform="translate(-1340.000000, -229.000000)" fill="#101820" fill-rule="nonzero">
            <g id="edit" transform="translate(1340.000000, 229.000000)">
                <path d="M0.569037709,16.9999898 C0.407601781,17.0009611 0.253440901,16.9327824 0.145384282,16.8126155 C0.0373276627,16.6924486 -0.0143250195,16.5317476 0.00343623441,16.3709889 L0.512477562,11.7413932 C0.526743426,11.6126063 0.584634541,11.4926079 0.67650199,11.4013985 L11.4681781,0.59523077 C11.8461388,0.214236867 12.3601597,0 12.8963219,0 C13.432484,0 13.9465049,0.214236867 14.3244656,0.59523077 L16.405879,2.65219924 C16.7861626,3.03086593 17,3.54584696 17,4.08301064 C17,4.62017432 16.7861626,5.13515534 16.405879,5.51382204 L5.59157881,16.3199897 C5.50053944,16.4120288 5.38076472,16.470028 5.25221792,16.4843205 L0.631253872,16.9999898 L0.569037709,16.9999898 Z M1.62105645,12.0587217 L1.20816738,15.7929978 L4.9354811,15.3793375 L15.5801009,4.70916771 C15.9236766,4.36048123 15.9236766,3.79987347 15.5801009,3.45118699 L13.5269675,1.39421852 C13.1789311,1.05000097 12.6193686,1.05000097 12.2713322,1.39421852 L1.62105645,12.0587217 Z" id="Shape"></path>
                <path d="M14.4594433,7 C14.317746,6.9994046 14.1819579,6.94326603 14.0813532,6.84368704 L10.1546184,2.92508285 C9.94431353,2.70925969 9.94915001,2.36416767 10.165421,2.15429825 C10.3816919,1.94442884 10.7275,1.9492553 10.9378049,2.16507846 L14.8429346,6.06212224 C15.0523551,6.27235641 15.0523551,6.61189246 14.8429346,6.82212663 C14.7446429,6.93096739 14.6061863,6.9951872 14.4594433,7 Z" id="Path"></path>
                <polygon id="Rectangle" transform="translate(7.772520, 9.230008) rotate(-45.000000) translate(-7.772520, -9.230008) " points="4.13457535 8.66335015 11.4104638 8.66335015 11.4104638 9.79666611 4.13457535 9.79666611"></polygon>
            </g>
        </g>
    </g>
</svg>