<?xml version="1.0" encoding="UTF-8"?>
<svg width="26px" height="27px" viewBox="0 0 26 27" version="1.1" xmlns="http://www.w3.org/2000/svg" xmlns:xlink="http://www.w3.org/1999/xlink">
    <title>logout</title>
    <g id="dashboard" stroke="none" stroke-width="1" fill="none" fill-rule="evenodd">
        <path d="M13,27 C5.83186047,27 0,21.274854 0,14.2370959 C0,10.2890707 1.81697674,6.62634382 4.98504651,4.18752272 C5.37444186,3.88753993 5.93827907,3.95466894 6.24362791,4.33736427 C6.54927907,4.71975991 6.48095349,5.2732746 6.09125581,5.57325739 C3.35944186,7.67613374 1.79309302,10.8338946 1.79309302,14.2370959 C1.79309302,20.3038807 6.82016279,25.2396614 12.9996977,25.2396614 C19.1792326,25.2396614 24.2063023,20.3038807 24.2063023,14.2370959 C24.2063023,10.8431848 22.646907,7.69051853 19.927186,5.58794186 C19.5383953,5.28735971 19.4712791,4.73354533 19.7778372,4.35174906 C20.0843953,3.97025247 20.6476279,3.90432218 21.0367209,4.20490434 C24.191186,6.64342576 26,10.2998593 26,14.2370959 C26,21.274854 20.1681395,27 13,27 Z M14,12.1300646 L14,0.869641809 C14,0.389019378 13.5522589,0 13,0 C12.4477411,0 12,0.389019378 12,0.869641809 L12,12.1303582 C12,12.610687 12.4477411,13 13,13 C13.5522589,13 14,12.6103934 14,12.1300646 Z" id="logout" fill="#CA275E" fill-rule="nonzero"></path>
    </g>
</svg>